<svg width="31802" height="6000" viewBox="0 0 31802 6000" fill="none" xmlns="http://www.w3.org/2000/svg">
<path d="M3780 11.9998V4500H3126V2244H1830V4500H1176V318C956 406 782 548 654 744C530 936 468 1166 468 1434C468 1574 476 1686 492 1770C512 1854 536 1922 564 1974C592 2026 622 2064 654 2088C686 2112 716 2130 744 2142C640 2142 542 2130 450 2106C362 2078 284 2034 216 1974C152 1914 100 1838 60 1746C20 1650 6.52671e-06 1534 6.52671e-06 1398C6.52671e-06 1210 44 1032 132 864C220 692 338 542 486 414C634 286 802 186 990 114C1182 37.9997 1380 -0.000357628 1584 -0.000357628C1628 -0.000357628 1670 1.99974 1710 5.99992C1750 5.99992 1790 7.9999 1830 11.9998V1890H3126V198L3780 11.9998ZM6548.02 1500V3540C6548.02 3580 6550.02 3630 6554.02 3690C6558.02 3750 6568.02 3810 6584.02 3870C6604.02 3926 6632.02 3976 6668.02 4020C6704.02 4060 6754.02 4080 6818.02 4080C7014.02 4080 7158.02 3862 7250.02 3426H7472.02C7428.02 3678 7372.02 3878 7304.02 4026C7236.02 4170 7164.02 4280 7088.02 4356C7012.02 4432 6934.02 4480 6854.02 4500C6774.02 4524 6702.02 4536 6638.02 4536C6546.02 4536 6466.02 4520 6398.02 4488C6334.02 4456 6278.02 4414 6230.02 4362C6186.02 4310 6150.02 4250 6122.02 4182C6094.02 4114 6072.02 4042 6056.02 3966C5996.02 4122 5898.02 4256 5762.02 4368C5630.02 4480 5468.02 4536 5276.02 4536C5156.02 4536 5034.02 4512 4910.02 4464C4790.02 4416 4680.02 4338 4580.02 4230C4484.02 4118 4404.02 3976 4340.02 3804C4280.02 3628 4250.02 3414 4250.02 3162C4250.02 2978 4270.02 2786 4310.02 2586C4354.02 2386 4422.02 2204 4514.02 2040C4606.02 1876 4724.02 1740 4868.02 1632C5012.02 1524 5186.02 1470 5390.02 1470C5438.02 1470 5488.02 1476 5540.02 1488C5596.02 1496 5648.02 1512 5696.02 1536C5748.02 1560 5796.02 1594 5840.02 1638C5884.02 1678 5920.02 1728 5948.02 1788V1500H6548.02ZM5426.02 4080C5486.02 4080 5546.02 4064 5606.02 4032C5670.02 3996 5726.02 3950 5774.02 3894C5826.02 3834 5868.02 3764 5900.02 3684C5932.02 3604 5948.02 3518 5948.02 3426V2058C5920.02 1994 5876.02 1936 5816.02 1884C5760.02 1828 5686.02 1800 5594.02 1800C5466.02 1800 5356.02 1844 5264.02 1932C5172.02 2016 5098.02 2124 5042.02 2256C4986.02 2384 4944.02 2526 4916.02 2682C4892.02 2834 4880.02 2980 4880.02 3120C4880.02 3464 4926.02 3710 5018.02 3858C5114.02 4006 5250.02 4080 5426.02 4080ZM9124.13 2250C9124.13 2530 9008.13 2764 8776.13 2952C8548.13 3140 8230.13 3256 7822.13 3300C7838.13 3460 7866.13 3590 7906.13 3690C7950.13 3790 8002.13 3870 8062.13 3930C8122.13 3986 8190.13 4026 8266.13 4050C8346.13 4070 8428.13 4080 8512.12 4080C8704.13 4080 8884.13 4030 9052.13 3930C9220.13 3830 9356.13 3662 9460.13 3426H9652.13C9600.13 3574 9528.13 3716 9436.13 3852C9344.13 3984 9236.13 4102 9112.13 4206C8988.13 4306 8854.13 4386 8710.13 4446C8566.13 4506 8418.13 4536 8266.13 4536C8126.13 4536 7990.13 4512 7858.13 4464C7730.13 4416 7616.13 4338 7516.13 4230C7416.13 4118 7334.13 3974 7270.13 3798C7210.13 3622 7180.13 3406 7180.13 3150C7180.13 2982 7198.13 2800 7234.13 2604C7274.13 2408 7338.13 2226 7426.13 2058C7518.13 1890 7636.13 1750 7780.13 1638C7928.13 1526 8110.13 1470 8326.13 1470C8426.13 1470 8522.13 1482 8614.13 1506C8710.13 1526 8796.13 1566 8872.13 1626C8948.13 1682 9008.13 1760 9052.13 1860C9100.13 1960 9124.13 2090 9124.13 2250ZM7816.13 3066C8100.13 3022 8324.13 2922 8488.13 2766C8656.13 2610 8740.13 2418 8740.13 2190C8740.13 2038 8714.13 1930 8662.13 1866C8610.13 1798 8536.13 1764 8440.13 1764C8336.13 1764 8244.13 1804 8164.13 1884C8088.13 1964 8024.13 2068 7972.13 2196C7920.13 2320 7880.13 2460 7852.12 2616C7828.13 2768 7816.13 2918 7816.13 3066ZM10055.1 1500V1914C10159.1 1722 10269.1 1600 10385.1 1548C10501.1 1496 10611.1 1470 10715.1 1470C10819.1 1470 10909.1 1484 10985.1 1512C11065.1 1540 11133.1 1578 11189.1 1626C11245.1 1674 11291.1 1730 11327.1 1794C11367.1 1858 11399.1 1928 11423.1 2004C11479.1 1884 11537.1 1790 11597.1 1722C11657.1 1650 11717.1 1596 11777.1 1560C11837.1 1520 11895.1 1496 11951.1 1488C12011.1 1476 12065.1 1470 12113.1 1470C12293.1 1470 12437.1 1504 12545.1 1572C12657.1 1640 12741.1 1728 12797.1 1836C12853.1 1940 12889.1 2056 12905.1 2184C12925.1 2308 12935.1 2428 12935.1 2544C12935.1 2616 12933.1 2696 12929.1 2784C12925.1 2868 12921.1 2956 12917.1 3048C12913.1 3136 12909.1 3226 12905.1 3318C12901.1 3406 12899.1 3488 12899.1 3564C12899.1 3596 12901.1 3642 12905.1 3702C12909.1 3758 12919.1 3814 12935.1 3870C12951.1 3926 12977.1 3976 13013.1 4020C13049.1 4060 13101.1 4080 13169.1 4080C13261.1 4080 13343.1 4028 13415.1 3924C13491.1 3820 13553.1 3654 13601.1 3426H13823.1C13779.1 3678 13723.1 3878 13655.1 4026C13587.1 4170 13515.1 4280 13439.1 4356C13363.1 4432 13287.1 4480 13211.1 4500C13135.1 4524 13065.1 4536 13001.1 4536C12873.1 4536 12765.1 4512 12677.1 4464C12589.1 4412 12517.1 4344 12461.1 4260C12405.1 4176 12363.1 4078 12335.1 3966C12311.1 3854 12299.1 3738 12299.1 3618C12299.1 3582 12299.1 3516 12299.1 3420C12303.1 3320 12305.1 3214 12305.1 3102C12309.1 2990 12311.1 2884 12311.1 2784C12315.1 2684 12317.1 2614 12317.1 2574C12317.1 2446 12307.1 2340 12287.1 2256C12267.1 2172 12239.1 2106 12203.1 2058C12167.1 2010 12125.1 1976 12077.1 1956C12033.1 1936 11985.1 1926 11933.1 1926C11809.1 1926 11707.1 1976 11627.1 2076C11551.1 2176 11497.1 2344 11465.1 2580V4500H10865.1V2496C10865.1 2424 10861.1 2354 10853.1 2286C10849.1 2218 10835.1 2158 10811.1 2106C10787.1 2050 10753.1 2006 10709.1 1974C10665.1 1942 10605.1 1926 10529.1 1926C10401.1 1926 10303.1 1980 10235.1 2088C10171.1 2192 10111.1 2356 10055.1 2580V4500H9455.11V1500H10055.1ZM15925.3 3426C15809.3 3586 15689.3 3720 15565.3 3828C15445.3 3932 15327.3 4024 15211.3 4104C15167.3 4184 15111.3 4252 15043.3 4308C14975.3 4360 14901.3 4404 14821.3 4440C14745.3 4472 14667.3 4496 14587.3 4512C14511.3 4528 14441.3 4536 14377.3 4536C14201.3 4536 14055.3 4508 13939.3 4452C13827.3 4396 13737.3 4326 13669.3 4242C13601.3 4154 13553.3 4058 13525.3 3954C13497.3 3846 13483.3 3744 13483.3 3648C13483.3 3544 13503.3 3454 13543.3 3378C13587.3 3298 13639.3 3242 13699.3 3210C13803.3 2910 13905.3 2614 14005.3 2322C14105.3 2026 14171.3 1730 14203.3 1434L14809.3 1314C14905.3 1694 14983.3 2004 15043.3 2244C15107.3 2484 15157.3 2688 15193.3 2856C15233.3 3020 15261.3 3166 15277.3 3294C15297.3 3418 15307.3 3556 15307.3 3708C15375.3 3664 15439.3 3618 15499.3 3570C15559.3 3518 15617.3 3470 15673.3 3426H15925.3ZM14671.3 3666C14671.3 3542 14663.3 3432 14647.3 3336C14635.3 3240 14615.3 3134 14587.3 3018C14559.3 2902 14523.3 2762 14479.3 2598C14439.3 2430 14391.3 2216 14335.3 1956C14311.3 2180 14261.3 2394 14185.3 2598C14113.3 2802 14047.3 3012 13987.3 3228C14023.3 3252 14053.3 3286 14077.3 3330C14105.3 3370 14119.3 3424 14119.3 3492C14119.3 3568 14099.3 3626 14059.3 3666C14019.3 3706 13975.3 3726 13927.3 3726C13863.3 3726 13809.3 3698 13765.3 3642C13797.3 3782 13853.3 3892 13933.3 3972C14013.3 4048 14119.3 4086 14251.3 4086C14379.3 4086 14481.3 4054 14557.3 3990C14633.3 3922 14671.3 3814 14671.3 3666ZM16272 588V1500H16734V1710H16272V3540C16272 3588 16274 3644 16278 3708C16282 3768 16292 3826 16308 3882C16328 3938 16356 3986 16392 4026C16432 4062 16486 4080 16554 4080C16662 4080 16764 4026 16860 3918C16960 3810 17038 3646 17094 3426H17316C17248 3678 17174 3878 17094 4026C17018 4170 16938 4280 16854 4356C16770 4432 16686 4480 16602 4500C16522 4524 16448 4536 16380 4536C16236 4536 16118 4510 16026 4458C15934 4402 15862 4332 15810 4248C15758 4164 15722 4072 15702 3972C15682 3868 15672 3766 15672 3666V1710H15468V1500H15672V672L16272 588ZM19298 1500V3540C19298 3580 19300 3630 19304 3690C19308 3750 19318 3810 19334 3870C19354 3926 19382 3976 19418 4020C19454 4060 19504 4080 19568 4080C19764 4080 19908 3862 20000 3426H20222C20178 3678 20122 3878 20054 4026C19986 4170 19914 4280 19838 4356C19762 4432 19684 4480 19604 4500C19524 4524 19452 4536 19388 4536C19296 4536 19216 4520 19148 4488C19084 4456 19028 4414 18980 4362C18936 4310 18900 4250 18872 4182C18844 4114 18822 4042 18806 3966C18746 4122 18648 4256 18512 4368C18380 4480 18218 4536 18026 4536C17906 4536 17784 4512 17660 4464C17540 4416 17430 4338 17330 4230C17234 4118 17154 3976 17090 3804C17030 3628 17000 3414 17000 3162C17000 2978 17020 2786 17060 2586C17104 2386 17172 2204 17264 2040C17356 1876 17474 1740 17618 1632C17762 1524 17936 1470 18140 1470C18188 1470 18238 1476 18290 1488C18346 1496 18398 1512 18446 1536C18498 1560 18546 1594 18590 1638C18634 1678 18670 1728 18698 1788V1500H19298ZM18176 4080C18236 4080 18296 4064 18356 4032C18420 3996 18476 3950 18524 3894C18576 3834 18618 3764 18650 3684C18682 3604 18698 3518 18698 3426V2058C18670 1994 18626 1936 18566 1884C18510 1828 18436 1800 18344 1800C18216 1800 18106 1844 18014 1932C17922 2016 17848 2124 17792 2256C17736 2384 17694 2526 17666 2682C17642 2834 17630 2980 17630 3120C17630 3464 17676 3710 17768 3858C17864 4006 18000 4080 18176 4080ZM22210.1 1500V4374C22310.1 4342 22398.1 4306 22474.1 4266C22554.1 4226 22622.1 4172 22678.1 4104C22738.1 4036 22786.1 3948 22822.1 3840C22862.1 3732 22892.1 3594 22912.1 3426H23134.1C23102.1 3638 23060.1 3812 23008.1 3948C22960.1 4080 22898.1 4188 22822.1 4272C22750.1 4352 22662.1 4416 22558.1 4464C22458.1 4508 22342.1 4550 22210.1 4590V4974C22210.1 5162 22190.1 5320 22150.1 5448C22110.1 5580 22054.1 5686 21982.1 5766C21914.1 5850 21834.1 5910 21742.1 5946C21654.1 5982 21560.1 6000 21460.1 6000C21260.1 6000 21104.1 5942 20992.1 5826C20880.1 5714 20824.1 5576 20824.1 5412C20824.1 5308 20846.1 5214 20890.1 5130C20938.1 5046 20998.1 4968 21070.1 4896C21146.1 4828 21230.1 4766 21322.1 4710C21418.1 4658 21514.1 4612 21610.1 4572V4056C21534.1 4160 21438.1 4246 21322.1 4314C21210.1 4382 21082.1 4416 20938.1 4416C20818.1 4416 20696.1 4394 20572.1 4350C20452.1 4302 20342.1 4226 20242.1 4122C20146.1 4018 20066.1 3882 20002.1 3714C19942.1 3546 19912.1 3342 19912.1 3102C19912.1 2922 19932.1 2736 19972.1 2544C20016.1 2352 20084.1 2178 20176.1 2022C20268.1 1862 20386.1 1730 20530.1 1626C20674.1 1522 20848.1 1470 21052.1 1470C21100.1 1470 21150.1 1476 21202.1 1488C21258.1 1496 21310.1 1512 21358.1 1536C21410.1 1560 21458.1 1594 21502.1 1638C21546.1 1678 21582.1 1728 21610.1 1788V1500H22210.1ZM21088.1 3960C21148.1 3960 21208.1 3944 21268.1 3912C21332.1 3880 21388.1 3836 21436.1 3780C21488.1 3724 21530.1 3658 21562.1 3582C21594.1 3506 21610.1 3424 21610.1 3336V2058C21582.1 1994 21538.1 1936 21478.1 1884C21422.1 1828 21348.1 1800 21256.1 1800C21128.1 1800 21018.1 1842 20926.1 1926C20834.1 2006 20760.1 2108 20704.1 2232C20648.1 2356 20606.1 2492 20578.1 2640C20554.1 2788 20542.1 2928 20542.1 3060C20542.1 3384 20588.1 3616 20680.1 3756C20776.1 3892 20912.1 3960 21088.1 3960ZM21346.1 5688C21454.1 5688 21524.1 5646 21556.1 5562C21592.1 5482 21610.1 5372 21610.1 5232V4812C21410.1 4904 21268.1 4994 21184.1 5082C21100.1 5174 21058.1 5276 21058.1 5388C21058.1 5480 21082.1 5552 21130.1 5604C21182.1 5660 21254.1 5688 21346.1 5688ZM23508.2 1500V2004C23556.2 1932 23602.2 1864 23646.2 1800C23694.2 1736 23746.2 1680 23802.2 1632C23858.2 1584 23920.2 1546 23988.2 1518C24056.2 1486 24132.2 1470 24216.2 1470C24352.2 1470 24452.2 1506 24516.2 1578C24580.2 1646 24612.2 1730 24612.2 1830C24612.2 1890 24602.2 1940 24582.2 1980C24562.2 2020 24538.2 2052 24510.2 2076C24482.2 2100 24452.2 2118 24420.2 2130C24388.2 2138 24360.2 2142 24336.2 2142C24300.2 2142 24270.2 2134 24246.2 2118C24226.2 2102 24204.2 2086 24180.2 2070C24160.2 2050 24136.2 2032 24108.2 2016C24080.2 2000 24044.2 1992 24000.2 1992C23908.2 1992 23820.2 2024 23736.2 2088C23652.2 2152 23576.2 2220 23508.2 2292V4500H22908.2V1500H23508.2ZM27137.9 1500V3540C27137.9 3580 27139.9 3630 27143.9 3690C27147.9 3750 27157.9 3810 27173.9 3870C27193.9 3926 27221.9 3976 27257.9 4020C27293.9 4060 27343.9 4080 27407.9 4080C27603.9 4080 27747.9 3862 27839.9 3426H28061.9C28017.9 3678 27961.9 3878 27893.9 4026C27825.9 4170 27753.9 4280 27677.9 4356C27601.9 4432 27523.9 4480 27443.9 4500C27363.9 4524 27291.9 4536 27227.9 4536C27135.9 4536 27055.9 4520 26987.9 4488C26923.9 4456 26867.9 4414 26819.9 4362C26775.9 4310 26739.9 4250 26711.9 4182C26683.9 4114 26661.9 4042 26645.9 3966C26585.9 4122 26487.9 4256 26351.9 4368C26219.9 4480 26057.9 4536 25865.9 4536C25745.9 4536 25623.9 4512 25499.9 4464C25379.9 4416 25269.9 4338 25169.9 4230C25073.9 4118 24993.9 3976 24929.9 3804C24869.9 3628 24839.9 3414 24839.9 3162C24839.9 2978 24859.9 2786 24899.9 2586C24943.9 2386 25011.9 2204 25103.9 2040C25195.9 1876 25313.9 1740 25457.9 1632C25601.9 1524 25775.9 1470 25979.9 1470C26027.9 1470 26077.9 1476 26129.9 1488C26185.9 1496 26237.9 1512 26285.9 1536C26337.9 1560 26385.9 1594 26429.9 1638C26473.9 1678 26509.9 1728 26537.9 1788V1500H27137.9ZM26015.9 4080C26075.9 4080 26135.9 4064 26195.9 4032C26259.9 3996 26315.9 3950 26363.9 3894C26415.9 3834 26457.9 3764 26489.9 3684C26521.9 3604 26537.9 3518 26537.9 3426V2058C26509.9 1994 26465.9 1936 26405.9 1884C26349.9 1828 26275.9 1800 26183.9 1800C26055.9 1800 25945.9 1844 25853.9 1932C25761.9 2016 25687.9 2124 25631.9 2256C25575.9 2384 25533.9 2526 25505.9 2682C25481.9 2834 25469.9 2980 25469.9 3120C25469.9 3464 25515.9 3710 25607.9 3858C25703.9 4006 25839.9 4080 26015.9 4080ZM28436 1500V1914C28540 1722 28650 1600 28766 1548C28882 1496 28992 1470 29096 1470C29200 1470 29290 1484 29366 1512C29446 1540 29514 1578 29570 1626C29626 1674 29672 1730 29708 1794C29748 1858 29780 1928 29804 2004C29860 1884 29918 1790 29978 1722C30038 1650 30098 1596 30158 1560C30218 1520 30276 1496 30332 1488C30392 1476 30446 1470 30494 1470C30674 1470 30818 1504 30926 1572C31038 1640 31122 1728 31178 1836C31234 1940 31270 2056 31286 2184C31306 2308 31316 2428 31316 2544C31316 2616 31314 2696 31310 2784C31306 2868 31302 2956 31298 3048C31294 3136 31290 3226 31286 3318C31282 3406 31280 3488 31280 3564C31280 3596 31282 3642 31286 3702C31290 3758 31300 3814 31316 3870C31332 3926 31358 3976 31394 4020C31430 4060 31482 4080 31550 4080C31658 4080 31742 4062 31802 4026V4068C31802 4168 31788 4250 31760 4314C31732 4374 31696 4420 31652 4452C31612 4484 31566 4506 31514 4518C31466 4530 31422 4536 31382 4536C31254 4536 31146 4512 31058 4464C30970 4412 30898 4344 30842 4260C30786 4176 30744 4078 30716 3966C30692 3854 30680 3738 30680 3618C30680 3582 30680 3516 30680 3420C30684 3320 30686 3214 30686 3102C30690 2990 30692 2884 30692 2784C30696 2684 30698 2614 30698 2574C30698 2446 30688 2340 30668 2256C30648 2172 30620 2106 30584 2058C30548 2010 30506 1976 30458 1956C30414 1936 30366 1926 30314 1926C30190 1926 30088 1976 30008 2076C29932 2176 29878 2344 29846 2580V4500H29246V2496C29246 2424 29242 2354 29234 2286C29230 2218 29216 2158 29192 2106C29168 2050 29134 2006 29090 1974C29046 1942 28986 1926 28910 1926C28782 1926 28684 1980 28616 2088C28552 2192 28492 2356 28436 2580V4500H27836V1500H28436Z" fill="black"/>
</svg>
