<svg width="26148" height="6973" viewBox="0 0 26148 6973" fill="none" xmlns="http://www.w3.org/2000/svg">
<path d="M2215.24 2689.45H3149.81V641.602C3149.81 428.711 3180.09 268.555 3240.63 161.133C3303.13 53.7109 3377.35 0 3463.29 0C3506.26 0 3546.3 12.6953 3583.41 38.0859C3622.47 63.4766 3656.65 93.75 3685.95 128.906C3715.24 162.109 3737.7 197.266 3753.33 234.375C3770.91 269.531 3779.7 297.852 3779.7 319.336C3779.7 340.82 3770.91 353.516 3753.33 357.422C3737.7 359.375 3719.15 370.117 3697.66 389.648C3678.13 407.227 3659.58 443.359 3642 498.047C3626.38 552.734 3618.56 642.578 3618.56 767.578V4529.3C3618.56 4580.08 3600.98 4615.23 3565.83 4634.77C3532.62 4656.25 3493.56 4666.99 3448.64 4666.99C3413.48 4666.99 3378.33 4662.11 3343.17 4652.34C3308.02 4642.58 3275.79 4629.88 3246.49 4614.26C3219.15 4598.63 3195.71 4580.08 3176.18 4558.59C3158.6 4539.06 3149.81 4517.58 3149.81 4494.14V3108.4H2215.24V4529.3C2215.24 4580.08 2197.66 4615.23 2162.51 4634.77C2129.3 4656.25 2090.24 4666.99 2045.32 4666.99C2010.16 4666.99 1975.01 4662.11 1939.85 4652.34C1904.7 4642.58 1872.47 4629.88 1843.17 4614.26C1815.83 4598.63 1792.39 4580.08 1772.86 4558.59C1755.28 4539.06 1746.49 4517.58 1746.49 4494.14V3108.4H1318.76C1287.51 3108.4 1258.21 3098.63 1230.87 3079.1C1205.48 3059.57 1183.02 3035.16 1163.48 3005.86C1145.91 2974.61 1131.26 2941.41 1119.54 2906.25C1109.77 2871.09 1104.89 2837.89 1104.89 2806.64C1104.89 2773.44 1111.73 2746.09 1125.4 2724.61C1141.02 2701.17 1163.48 2689.45 1192.78 2689.45H1746.49V750C1560.95 750 1390.05 781.25 1233.8 843.75C1079.5 904.297 945.711 992.188 832.43 1107.42C721.102 1220.7 633.211 1358.4 568.758 1520.51C506.258 1682.62 475.008 1864.26 475.008 2065.43C475.008 2192.38 487.703 2306.64 513.094 2408.2C538.484 2509.77 568.758 2596.68 603.914 2668.95C639.07 2739.26 674.227 2793.95 709.383 2833.01C744.539 2872.07 771.883 2891.6 791.414 2891.6C808.992 2891.6 821.688 2886.72 829.5 2876.95C837.312 2867.19 849.031 2862.3 864.656 2862.3C880.281 2862.3 890.047 2873.05 893.953 2894.53C897.859 2916.02 899.812 2937.5 899.812 2958.98C899.812 3021.48 887.117 3081.05 861.727 3137.7C836.336 3192.38 804.109 3237.3 765.047 3272.46C727.938 3305.66 685.945 3326.17 639.07 3333.98C592.195 3341.8 547.273 3330.08 504.305 3298.83C451.57 3261.72 394.93 3208.98 334.383 3140.62C275.789 3070.31 221.102 2984.38 170.32 2882.81C121.492 2781.25 80.4766 2664.06 47.2734 2531.25C16.0234 2396.48 0.398438 2247.07 0.398438 2083.01C0.398438 1870.12 27.7422 1678.71 82.4297 1508.79C139.07 1336.91 214.266 1185.55 308.016 1054.69C403.719 921.875 516.023 808.594 644.93 714.844C773.836 619.141 910.555 541.016 1055.09 480.469C1201.57 417.969 1352.94 372.07 1509.19 342.773C1667.39 313.477 1822.66 298.828 1975.01 298.828C2006.26 298.828 2036.53 305.664 2065.83 319.336C2095.12 331.055 2120.52 348.633 2142 372.07C2163.48 393.555 2181.06 419.922 2194.73 451.172C2208.41 482.422 2215.24 515.625 2215.24 550.781V2689.45ZM5871.49 4271.48C5932.04 4271.48 5983.8 4250 6026.77 4207.03C6071.69 4164.06 6109.77 4110.35 6141.02 4045.9C6174.23 3981.45 6200.59 3912.11 6220.12 3837.89C6241.61 3761.72 6259.19 3690.43 6272.86 3624.02C6286.53 3561.52 6306.06 3516.6 6331.45 3489.26C6358.8 3459.96 6388.09 3445.31 6419.34 3445.31C6442.78 3445.31 6466.22 3453.12 6489.66 3468.75C6515.05 3482.42 6537.51 3500.98 6557.04 3524.41C6578.52 3547.85 6595.12 3574.22 6606.84 3603.52C6620.52 3632.81 6627.35 3662.11 6627.35 3691.41C6627.35 3695.31 6627.35 3700.2 6627.35 3706.05C6627.35 3711.91 6625.4 3720.7 6621.49 3732.42C6596.1 3832.03 6560.95 3936.52 6516.02 4045.9C6473.05 4155.27 6417.39 4255.86 6349.03 4347.66C6280.67 4439.45 6197.66 4515.62 6100.01 4576.17C6004.3 4636.72 5892 4666.99 5763.09 4666.99C5657.62 4666.99 5565.83 4644.53 5487.7 4599.61C5409.58 4554.69 5348.05 4495.12 5303.13 4420.9C5242.59 4489.26 5169.34 4546.88 5083.41 4593.75C4999.42 4642.58 4900.79 4666.99 4787.51 4666.99C4670.32 4666.99 4566.8 4643.55 4476.96 4596.68C4389.07 4549.8 4314.85 4486.33 4254.3 4406.25C4193.76 4324.22 4147.86 4228.52 4116.61 4119.14C4087.31 4007.81 4072.66 3888.67 4072.66 3761.72C4072.66 3511.72 4112.7 3287.11 4192.78 3087.89C4272.86 2888.67 4379.3 2719.73 4512.12 2581.05C4644.93 2440.43 4796.3 2333.01 4966.22 2258.79C5138.09 2184.57 5315.83 2147.46 5499.42 2147.46C5581.45 2147.46 5647.86 2169.92 5698.64 2214.84C5749.42 2259.77 5774.81 2321.29 5774.81 2399.41C5774.81 2450.2 5768.95 2486.33 5757.23 2507.81C5747.47 2527.34 5727.94 2537.11 5698.64 2537.11C5671.3 2537.11 5642.98 2535.16 5613.68 2531.25C5584.38 2527.34 5554.11 2525.39 5522.86 2525.39C5409.58 2525.39 5294.34 2550.78 5177.16 2601.56C5059.97 2650.39 4953.52 2726.56 4857.82 2830.08C4764.07 2931.64 4686.92 3061.52 4626.38 3219.73C4565.83 3375.98 4535.55 3562.5 4535.55 3779.3C4535.55 3937.5 4565.83 4059.57 4626.38 4145.51C4686.92 4229.49 4769.93 4271.48 4875.4 4271.48C4957.43 4271.48 5025.79 4241.21 5080.48 4180.66C5135.16 4118.16 5179.11 4044.92 5212.31 3960.94V3035.16C5212.31 3005.86 5210.36 2981.45 5206.45 2961.91C5204.5 2942.38 5201.57 2925.78 5197.66 2912.11C5195.71 2898.44 5193.76 2886.72 5191.8 2876.95C5189.85 2865.23 5188.88 2854.49 5188.88 2844.73C5188.88 2813.48 5203.52 2789.06 5232.82 2771.48C5264.07 2751.95 5301.18 2742.19 5344.15 2742.19C5443.76 2742.19 5522.86 2768.55 5581.45 2821.29C5640.05 2872.07 5669.34 2933.59 5669.34 3005.86V3996.09C5669.34 4029.3 5673.25 4062.5 5681.06 4095.7C5688.88 4126.95 5700.59 4156.25 5716.22 4183.59C5731.84 4208.98 5752.35 4230.47 5777.74 4248.05C5805.09 4263.67 5836.34 4271.48 5871.49 4271.48ZM7682.04 2753.91C7682.04 2865.23 7662.51 2979.49 7623.45 3096.68C7586.34 3213.87 7529.7 3325.2 7453.52 3430.66C7379.3 3534.18 7286.53 3627.93 7175.2 3711.91C7065.83 3793.95 6938.88 3856.45 6794.34 3899.41C6813.88 3950.2 6839.27 3999.02 6870.52 4045.9C6903.72 4090.82 6942.78 4129.88 6987.7 4163.09C7032.62 4196.29 7084.38 4222.66 7142.98 4242.19C7203.52 4261.72 7272.86 4271.48 7350.98 4271.48C7468.17 4271.48 7568.76 4250 7652.74 4207.03C7736.73 4162.11 7807.04 4103.52 7863.68 4031.25C7922.27 3958.98 7969.15 3877.93 8004.3 3788.09C8039.46 3698.24 8065.83 3607.42 8083.41 3515.62C8097.08 3449.22 8124.42 3405.27 8165.44 3383.79C8208.41 3360.35 8251.38 3354.49 8294.34 3366.21C8339.27 3377.93 8377.35 3403.32 8408.6 3442.38C8441.8 3479.49 8455.48 3524.41 8449.62 3577.15C8441.8 3637.7 8428.13 3707.03 8408.6 3785.16C8391.02 3863.28 8363.68 3942.38 8326.57 4022.46C8289.46 4102.54 8241.61 4181.64 8183.02 4259.77C8126.38 4335.94 8056.06 4404.3 7972.08 4464.84C7888.09 4525.39 7789.46 4574.22 7676.18 4611.33C7562.9 4648.44 7433.02 4666.99 7286.53 4666.99C7149.81 4666.99 7017 4639.65 6888.09 4584.96C6761.14 4532.23 6647.86 4456.05 6548.25 4356.45C6450.59 4254.88 6371.49 4130.86 6310.95 3984.38C6252.35 3835.94 6223.05 3667.97 6223.05 3480.47C6223.05 3291.02 6249.42 3115.23 6302.16 2953.12C6354.89 2789.06 6424.23 2647.46 6510.16 2528.32C6596.1 2409.18 6693.76 2316.41 6803.13 2250C6912.51 2181.64 7024.81 2147.46 7140.05 2147.46C7224.03 2147.46 7299.23 2162.11 7365.63 2191.41C7433.99 2220.7 7491.61 2262.7 7538.48 2317.38C7585.36 2370.12 7620.52 2433.59 7643.95 2507.81C7669.34 2582.03 7682.04 2664.06 7682.04 2753.91ZM6715.24 3462.89C6715.24 3480.47 6716.22 3498.05 6718.17 3515.62C6720.12 3533.2 6721.1 3551.76 6721.1 3571.29C6795.32 3536.13 6862.7 3491.21 6923.25 3436.52C6983.8 3381.84 7035.55 3319.34 7078.52 3249.02C7121.49 3178.71 7154.7 3102.54 7178.13 3020.51C7201.57 2936.52 7213.29 2849.61 7213.29 2759.77C7213.29 2693.36 7201.57 2641.6 7178.13 2604.49C7156.65 2567.38 7126.38 2548.83 7087.31 2548.83C7038.48 2548.83 6994.54 2565.43 6955.48 2598.63C6918.37 2631.84 6885.16 2675.78 6855.87 2730.47C6828.52 2783.2 6805.09 2843.75 6785.55 2912.11C6767.98 2978.52 6753.33 3045.9 6741.61 3114.26C6729.89 3182.62 6722.08 3248.05 6718.17 3310.55C6714.27 3371.09 6713.29 3421.88 6715.24 3462.89ZM11663.5 3732.42C11636.1 3832.03 11600 3936.52 11555.1 4045.9C11512.1 4155.27 11456.5 4255.86 11388.1 4347.66C11319.7 4439.45 11237.7 4515.62 11142 4576.17C11046.3 4636.72 10934 4666.99 10805.1 4666.99C10725 4666.99 10653.7 4651.37 10591.2 4620.12C10530.7 4590.82 10477.9 4550.78 10433 4500C10390 4449.22 10356.8 4389.65 10333.4 4321.29C10311.9 4252.93 10301.2 4180.66 10301.2 4104.49V2885.74C10301.2 2838.87 10300.2 2794.92 10298.2 2753.91C10296.3 2712.89 10291.4 2676.76 10283.6 2645.51C10275.8 2614.26 10264.1 2589.84 10248.4 2572.27C10234.8 2552.73 10215.2 2542.97 10189.9 2542.97C10148.8 2542.97 10099 2572.27 10040.4 2630.86C9981.84 2689.45 9925.2 2765.62 9870.52 2859.38C9815.83 2953.12 9767 3059.57 9724.03 3178.71C9681.06 3295.9 9655.67 3414.06 9647.86 3533.2V4409.18C9647.86 4438.48 9646.88 4468.75 9644.93 4500C9644.93 4529.3 9639.07 4555.66 9627.35 4579.1C9617.59 4604.49 9600.98 4625 9577.55 4640.62C9556.06 4658.2 9523.84 4666.99 9480.87 4666.99C9451.57 4666.99 9419.34 4663.09 9384.19 4655.27C9350.98 4649.41 9319.73 4636.72 9290.44 4617.19C9263.09 4599.61 9239.66 4573.24 9220.12 4538.09C9202.55 4504.88 9193.76 4459.96 9193.76 4403.32V2885.74C9193.76 2838.87 9191.8 2794.92 9187.9 2753.91C9185.95 2712.89 9181.06 2676.76 9173.25 2645.51C9165.44 2614.26 9153.72 2589.84 9138.09 2572.27C9124.42 2552.73 9104.89 2542.97 9079.5 2542.97C9038.48 2542.97 8988.68 2572.27 8930.09 2630.86C8873.45 2689.45 8816.8 2765.62 8760.16 2859.38C8705.48 2953.12 8656.65 3059.57 8613.68 3178.71C8572.66 3295.9 8547.27 3414.06 8537.51 3533.2V4409.18C8537.51 4438.48 8536.53 4468.75 8534.58 4500C8534.58 4529.3 8528.72 4555.66 8517 4579.1C8507.23 4604.49 8490.63 4625 8467.2 4640.62C8445.71 4658.2 8413.48 4666.99 8370.52 4666.99C8341.22 4666.99 8308.99 4663.09 8273.84 4655.27C8240.63 4649.41 8209.38 4636.72 8180.09 4617.19C8152.74 4599.61 8129.3 4573.24 8109.77 4538.09C8092.2 4504.88 8083.41 4459.96 8083.41 4403.32V2501.95C8083.41 2445.31 8078.52 2404.3 8068.76 2378.91C8060.95 2353.52 8057.04 2330.08 8057.04 2308.59C8057.04 2279.3 8072.66 2255.86 8103.91 2238.28C8135.16 2218.75 8172.27 2208.98 8215.24 2208.98C8314.85 2208.98 8392.98 2235.35 8449.62 2288.09C8508.21 2338.87 8537.51 2400.39 8537.51 2472.66V2724.61C8576.57 2642.58 8618.56 2566.41 8663.48 2496.09C8710.36 2425.78 8760.16 2365.23 8812.9 2314.45C8865.63 2261.72 8921.3 2220.7 8979.89 2191.41C9040.44 2162.11 9104.89 2147.46 9173.25 2147.46C9263.09 2147.46 9337.31 2164.06 9395.91 2197.27C9456.45 2230.47 9504.3 2274.41 9539.46 2329.1C9576.57 2383.79 9602.94 2445.31 9618.56 2513.67C9634.19 2580.08 9643.95 2646.48 9647.86 2712.89C9684.97 2632.81 9725.98 2558.59 9770.91 2490.23C9815.83 2421.88 9864.66 2362.3 9917.39 2311.52C9970.12 2260.74 10025.8 2220.7 10084.4 2191.41C10144.9 2162.11 10209.4 2147.46 10277.7 2147.46C10375.4 2147.46 10455.5 2166.02 10518 2203.12C10580.5 2240.23 10629.3 2288.09 10664.5 2346.68C10699.6 2405.27 10724 2470.7 10737.7 2542.97C10751.4 2615.23 10758.2 2685.55 10758.2 2753.91V3996.09C10758.2 4009.77 10759.2 4032.23 10761.1 4063.48C10763.1 4092.77 10769 4123.05 10778.7 4154.3C10788.5 4185.55 10803.1 4212.89 10822.7 4236.33C10844.1 4259.77 10874.4 4271.48 10913.5 4271.48C10974 4271.48 11025.8 4250 11068.8 4207.03C11113.7 4164.06 11151.8 4110.35 11183 4045.9C11216.2 3981.45 11243.6 3912.11 11265 3837.89C11286.5 3761.72 11304.1 3690.43 11317.8 3624.02C11329.5 3561.52 11348.1 3516.6 11373.4 3489.26C11400.8 3459.96 11430.1 3445.31 11461.3 3445.31C11484.8 3445.31 11508.2 3453.12 11531.6 3468.75C11557 3482.42 11579.5 3500.98 11599 3524.41C11620.5 3547.85 11637.1 3574.22 11648.8 3603.52C11662.5 3632.81 11669.3 3662.11 11669.3 3691.41C11669.3 3695.31 11669.3 3700.2 11669.3 3706.05C11669.3 3711.91 11667.4 3720.7 11663.5 3732.42ZM11681.1 3676.76C11665.4 3739.26 11636.1 3778.32 11593.2 3793.95C11550.2 3807.62 11507.2 3805.66 11464.3 3788.09C11423.2 3770.51 11388.1 3740.23 11358.8 3697.27C11331.5 3654.3 11323.6 3607.42 11335.4 3556.64C11364.7 3423.83 11406.6 3277.34 11461.3 3117.19C11518 2955.08 11573.6 2793.95 11628.3 2633.79C11599 2588.87 11575.6 2543.95 11558 2499.02C11540.4 2452.15 11531.6 2403.32 11531.6 2352.54C11531.6 2301.76 11550.2 2249.02 11587.3 2194.34C11626.4 2137.7 11672.3 2085.94 11725 2039.06C11779.7 1992.19 11835.4 1954.1 11892 1924.8C11950.6 1893.55 12000.4 1877.93 12041.4 1877.93C12113.7 1877.93 12167.4 1902.34 12202.5 1951.17C12239.7 2000 12258.2 2065.43 12258.2 2147.46C12258.2 2192.38 12250.4 2237.3 12234.8 2282.23C12221.1 2325.2 12205.5 2366.21 12187.9 2405.27C12170.3 2442.38 12153.7 2474.61 12138.1 2501.95C12124.4 2529.3 12116.6 2546.88 12114.7 2554.69C12185 2679.69 12258.2 2790.04 12334.4 2885.74C12410.6 2981.45 12479.9 3076.17 12542.4 3169.92C12606.8 3263.67 12659.6 3363.28 12700.6 3468.75C12741.6 3574.22 12762.1 3698.24 12762.1 3840.82C12762.1 3875.98 12759.2 3912.11 12753.3 3949.22C12749.4 3986.33 12742.6 4021.48 12732.8 4054.69C12803.1 4041.02 12864.7 4019.53 12917.4 3990.23C12972.1 3960.94 13019 3927.73 13058 3890.62C13099 3851.56 13132.2 3809.57 13157.6 3764.65C13185 3719.73 13207.4 3672.85 13225 3624.02C13246.5 3567.38 13268 3526.37 13289.5 3500.98C13310.9 3475.59 13335.4 3462.89 13362.7 3462.89C13388.1 3462.89 13413.5 3471.68 13438.9 3489.26C13466.2 3504.88 13489.7 3525.39 13509.2 3550.78C13530.7 3576.17 13547.3 3602.54 13559 3629.88C13572.7 3657.23 13579.5 3681.64 13579.5 3703.12C13579.5 3732.42 13571.7 3767.58 13556.1 3808.59C13540.4 3849.61 13519 3891.6 13491.6 3934.57C13466.2 3977.54 13436.9 4019.53 13403.7 4060.55C13370.5 4099.61 13336.3 4133.79 13301.2 4163.09C13207.4 4239.26 13097.1 4303.71 12970.1 4356.45C12843.2 4407.23 12685.9 4439.45 12498.4 4453.12C12426.2 4515.62 12340.2 4566.41 12240.6 4605.47C12143 4646.48 12032.6 4666.99 11909.6 4666.99C11847.1 4666.99 11782.6 4659.18 11716.2 4643.55C11651.8 4627.93 11589.3 4607.42 11528.7 4582.03C11470.1 4558.59 11416.4 4532.23 11367.6 4502.93C11318.8 4473.63 11279.7 4444.34 11250.4 4415.04C11176.2 4344.73 11128.3 4274.41 11106.8 4204.1C11085.4 4131.84 11080.5 4067.38 11092.2 4010.74C11102 3954.1 11122.5 3908.2 11153.7 3873.05C11185 3835.94 11217.2 3817.38 11250.4 3817.38C11269.9 3817.38 11300.2 3826.17 11341.2 3843.75C11384.2 3859.38 11433 3880.86 11487.7 3908.2C11542.4 3933.59 11602 3960.94 11666.4 3990.23C11730.9 4019.53 11795.3 4047.85 11859.8 4075.2C11924.2 4100.59 11986.7 4122.07 12047.3 4139.65C12109.8 4155.27 12166.4 4163.09 12217.2 4163.09C12250.4 4124.02 12280.7 4072.27 12308 4007.81C12335.4 3943.36 12349 3873.05 12349 3796.88C12349 3703.12 12336.3 3616.21 12310.9 3536.13C12285.6 3456.05 12252.4 3381.84 12211.3 3313.48C12170.3 3245.12 12123.4 3181.64 12070.7 3123.05C12019.9 3062.5 11968.2 3005.86 11915.4 2953.12C11868.6 3068.36 11827.5 3182.62 11792.4 3295.9C11757.2 3407.23 11720.1 3534.18 11681.1 3676.76ZM12715.2 1678.71C12760.2 1682.62 12810 1685.55 12864.7 1687.5C12911.5 1691.41 12968.2 1694.34 13034.6 1696.29C13101 1696.29 13175.2 1697.27 13257.2 1699.22V682.617C13257.2 639.648 13253.3 605.469 13245.5 580.078C13239.7 554.687 13232.8 535.156 13225 521.484C13219.1 505.859 13212.3 494.141 13204.5 486.328C13198.6 476.563 13195.7 466.797 13195.7 457.031C13195.7 445.312 13201.6 435.547 13213.3 427.734C13225 419.922 13240.6 413.086 13260.2 407.227C13279.7 401.367 13300.2 397.461 13321.7 395.508C13345.1 391.602 13367.6 389.648 13389.1 389.648C13488.7 389.648 13566.8 416.016 13623.4 468.75C13682 519.531 13711.3 581.055 13711.3 653.32V1705.08C13894.9 1705.08 14088.3 1703.12 14291.4 1699.22C14496.5 1695.31 14701.6 1688.48 14906.6 1678.71C14934 1649.41 14955.5 1638.67 14971.1 1646.48C14988.7 1654.3 14999.4 1672.85 15003.3 1702.15C15009.2 1731.45 15010.2 1767.58 15006.3 1810.55C15002.4 1853.52 14994.5 1895.51 14982.8 1936.52C14971.1 1975.59 14954.5 2009.77 14933 2039.06C14913.5 2068.36 14891 2083.01 14865.6 2083.01C14625.4 2088.87 14412.5 2092.77 14227 2094.73C14043.4 2094.73 13871.5 2094.73 13711.3 2094.73V3996.09C13711.3 4093.75 13729.9 4164.06 13767 4207.03C13804.1 4250 13853.9 4271.48 13916.4 4271.48C13977 4271.48 14028.7 4250 14071.7 4207.03C14116.6 4164.06 14154.7 4110.35 14185.9 4045.9C14219.1 3981.45 14245.5 3912.11 14265 3837.89C14286.5 3761.72 14304.1 3690.43 14317.8 3624.02C14329.5 3561.52 14349 3516.6 14376.4 3489.26C14403.7 3459.96 14432 3445.31 14461.3 3445.31C14484.8 3445.31 14509.2 3453.12 14534.6 3468.75C14560 3482.42 14582.4 3500.98 14602 3524.41C14623.4 3547.85 14640 3574.22 14651.8 3603.52C14665.4 3632.81 14672.3 3662.11 14672.3 3691.41C14672.3 3695.31 14672.3 3700.2 14672.3 3706.05C14672.3 3711.91 14670.3 3720.7 14666.4 3732.42C14641 3832.03 14605.9 3936.52 14560.9 4045.9C14518 4155.27 14461.3 4255.86 14391 4347.66C14322.7 4439.45 14240.6 4515.62 14144.9 4576.17C14049.2 4636.72 13936.9 4666.99 13808 4666.99C13727.9 4666.99 13653.7 4654.3 13585.4 4628.91C13519 4605.47 13461.3 4566.41 13412.5 4511.72C13363.7 4458.98 13325.6 4390.62 13298.2 4306.64C13270.9 4222.66 13257.2 4121.09 13257.2 4001.95V2094.73C13190.8 2094.73 13131.3 2094.73 13078.5 2094.73C13027.7 2092.77 12984.8 2090.82 12949.6 2088.87C12908.6 2086.91 12872.5 2084.96 12841.2 2083.01C12794.3 2083.01 12753.3 2062.5 12718.2 2021.48C12681.1 1978.52 12655.7 1931.64 12642 1880.86C12626.4 1830.08 12624.4 1784.18 12636.1 1743.16C12645.9 1700.2 12672.3 1678.71 12715.2 1678.71ZM16043.4 4271.48C16103.9 4271.48 16155.7 4250 16198.6 4207.03C16243.6 4164.06 16281.6 4110.35 16312.9 4045.9C16346.1 3981.45 16372.5 3912.11 16392 3837.89C16413.5 3761.72 16431.1 3690.43 16444.7 3624.02C16458.4 3561.52 16477.9 3516.6 16503.3 3489.26C16530.7 3459.96 16560 3445.31 16591.2 3445.31C16614.7 3445.31 16638.1 3453.12 16661.5 3468.75C16686.9 3482.42 16709.4 3500.98 16728.9 3524.41C16750.4 3547.85 16767 3574.22 16778.7 3603.52C16792.4 3632.81 16799.2 3662.11 16799.2 3691.41C16799.2 3695.31 16799.2 3700.2 16799.2 3706.05C16799.2 3711.91 16797.3 3720.7 16793.4 3732.42C16768 3832.03 16732.8 3936.52 16687.9 4045.9C16644.9 4155.27 16589.3 4255.86 16520.9 4347.66C16452.5 4439.45 16369.5 4515.62 16271.9 4576.17C16176.2 4636.72 16063.9 4666.99 15935 4666.99C15829.5 4666.99 15737.7 4644.53 15659.6 4599.61C15581.5 4554.69 15519.9 4495.12 15475 4420.9C15414.5 4489.26 15341.2 4546.88 15255.3 4593.75C15171.3 4642.58 15072.7 4666.99 14959.4 4666.99C14842.2 4666.99 14738.7 4643.55 14648.8 4596.68C14560.9 4549.8 14486.7 4486.33 14426.2 4406.25C14365.6 4324.22 14319.7 4228.52 14288.5 4119.14C14259.2 4007.81 14244.5 3888.67 14244.5 3761.72C14244.5 3511.72 14284.6 3287.11 14364.7 3087.89C14444.7 2888.67 14551.2 2719.73 14684 2581.05C14816.8 2440.43 14968.2 2333.01 15138.1 2258.79C15310 2184.57 15487.7 2147.46 15671.3 2147.46C15753.3 2147.46 15819.7 2169.92 15870.5 2214.84C15921.3 2259.77 15946.7 2321.29 15946.7 2399.41C15946.7 2450.2 15940.8 2486.33 15929.1 2507.81C15919.3 2527.34 15899.8 2537.11 15870.5 2537.11C15843.2 2537.11 15814.9 2535.16 15785.6 2531.25C15756.3 2527.34 15726 2525.39 15694.7 2525.39C15581.5 2525.39 15466.2 2550.78 15349 2601.56C15231.8 2650.39 15125.4 2726.56 15029.7 2830.08C14935.9 2931.64 14858.8 3061.52 14798.2 3219.73C14737.7 3375.98 14707.4 3562.5 14707.4 3779.3C14707.4 3937.5 14737.7 4059.57 14798.2 4145.51C14858.8 4229.49 14941.8 4271.48 15047.3 4271.48C15129.3 4271.48 15197.7 4241.21 15252.4 4180.66C15307 4118.16 15351 4044.92 15384.2 3960.94V3035.16C15384.2 3005.86 15382.2 2981.45 15378.3 2961.91C15376.4 2942.38 15373.4 2925.78 15369.5 2912.11C15367.6 2898.44 15365.6 2886.72 15363.7 2876.95C15361.7 2865.23 15360.8 2854.49 15360.8 2844.73C15360.8 2813.48 15375.4 2789.06 15404.7 2771.48C15435.9 2751.95 15473.1 2742.19 15516 2742.19C15615.6 2742.19 15694.7 2768.55 15753.3 2821.29C15811.9 2872.07 15841.2 2933.59 15841.2 3005.86V3996.09C15841.2 4029.3 15845.1 4062.5 15852.9 4095.7C15860.8 4126.95 15872.5 4156.25 15888.1 4183.59C15903.7 4208.98 15924.2 4230.47 15949.6 4248.05C15977 4263.67 16008.2 4271.48 16043.4 4271.48ZM16834.4 6281.25C16834.4 6128.91 16853.9 5994.14 16893 5876.95C16934 5759.77 16988.7 5652.34 17057 5554.69C17125.4 5457.03 17204.5 5365.23 17294.3 5279.3C17384.2 5195.31 17478.9 5109.38 17578.5 5021.48V4391.6C17518 4452.15 17446.7 4502.93 17364.7 4543.95C17284.6 4586.91 17191.8 4608.4 17086.3 4608.4C16969.1 4608.4 16865.6 4584.96 16775.8 4538.09C16687.9 4491.21 16613.7 4427.73 16553.1 4347.66C16492.6 4265.62 16446.7 4169.92 16415.4 4060.55C16386.1 3949.22 16371.5 3830.08 16371.5 3703.12C16371.5 3453.12 16411.5 3228.52 16491.6 3029.3C16571.7 2830.08 16678.1 2661.13 16810.9 2522.46C16943.8 2381.84 17095.1 2274.41 17265 2200.2C17436.9 2125.98 17614.7 2088.87 17798.2 2088.87C17880.3 2088.87 17946.7 2111.33 17997.5 2156.25C18048.2 2199.22 18073.6 2260.74 18073.6 2340.82C18073.6 2391.6 18067.8 2427.73 18056.1 2449.22C18046.3 2468.75 18026.8 2478.52 17997.5 2478.52C17970.1 2478.52 17941.8 2476.56 17912.5 2472.66C17883.2 2468.75 17852.9 2466.8 17821.7 2466.8C17708.4 2466.8 17593.2 2492.19 17476 2542.97C17358.8 2591.8 17252.4 2667.97 17156.6 2771.48C17062.9 2873.05 16985.8 3002.93 16925.2 3161.13C16864.7 3317.38 16834.4 3503.91 16834.4 3720.7C16834.4 3876.95 16864.7 3998.05 16925.2 4083.98C16985.8 4169.92 17068.8 4212.89 17174.2 4212.89C17234.8 4212.89 17287.5 4195.31 17332.4 4160.16C17377.4 4123.05 17416.4 4077.15 17449.6 4022.46C17482.8 3967.77 17509.2 3908.2 17528.7 3843.75C17550.2 3777.34 17566.8 3713.87 17578.5 3653.32V2976.56C17578.5 2919.92 17573.6 2878.91 17563.9 2853.52C17556.1 2828.12 17552.2 2804.69 17552.2 2783.2C17552.2 2753.91 17567.8 2729.49 17599 2709.96C17630.3 2690.43 17667.4 2680.66 17710.4 2680.66C17810 2680.66 17888.1 2707.03 17944.7 2759.77C18003.3 2810.55 18032.6 2873.05 18032.6 2947.27V4579.1C18142 4458.01 18241.6 4320.31 18331.5 4166.02C18423.2 4011.72 18499.4 3831.05 18560 3624.02C18579.5 3561.52 18601 3516.6 18624.4 3489.26C18647.9 3459.96 18675.2 3445.31 18706.5 3445.31C18729.9 3445.31 18753.3 3453.12 18776.8 3468.75C18802.2 3482.42 18824.6 3500.98 18844.1 3524.41C18865.6 3547.85 18882.2 3574.22 18894 3603.52C18907.6 3632.81 18914.5 3662.11 18914.5 3691.41C18914.5 3695.31 18914.5 3703.12 18914.5 3714.84C18914.5 3726.56 18912.5 3738.28 18908.6 3750C18857.8 3923.83 18798.2 4078.12 18729.9 4212.89C18663.5 4345.7 18592.2 4464.84 18516 4570.31C18439.9 4675.78 18360.8 4769.53 18278.7 4851.56C18196.7 4935.55 18114.7 5012.7 18032.6 5083.01V6120.12C18032.6 6278.32 18014.1 6411.13 17977 6518.55C17941.8 6627.93 17894.9 6715.82 17836.3 6782.23C17777.7 6850.59 17710.4 6899.41 17634.2 6928.71C17560 6958.01 17484.8 6972.66 17408.6 6972.66C17324.6 6972.66 17247.5 6954.1 17177.2 6916.99C17106.8 6881.84 17046.3 6833.01 16995.5 6770.51C16944.7 6708.01 16904.7 6634.77 16875.4 6550.78C16848.1 6466.8 16834.4 6376.95 16834.4 6281.25ZM17408.6 6594.73C17457.4 6594.73 17493.6 6575.2 17517 6536.13C17540.4 6497.07 17556.1 6451.17 17563.9 6398.44C17573.6 6347.66 17578.5 6295.9 17578.5 6243.16C17578.5 6190.43 17578.5 6149.41 17578.5 6120.12V5478.52C17480.9 5576.17 17401.8 5686.52 17341.2 5809.57C17282.6 5932.62 17253.3 6083.98 17253.3 6263.67C17253.3 6357.42 17267 6435.55 17294.3 6498.05C17321.7 6562.5 17359.8 6594.73 17408.6 6594.73ZM19895.9 4666.99C19825.6 4666.99 19753.3 4656.25 19679.1 4634.77C19606.8 4613.28 19540.4 4576.17 19479.9 4523.44C19421.3 4470.7 19372.5 4401.37 19333.4 4315.43C19296.3 4227.54 19277.7 4117.19 19277.7 3984.38C19277.7 3791.02 19303.1 3586.91 19353.9 3372.07C19406.6 3155.27 19481.8 2916.99 19579.5 2657.23H19122.5H19055.1C19053.1 2715.82 19049.2 2790.04 19043.4 2879.88C19039.5 2969.73 19031.6 3065.43 19019.9 3166.99C19008.2 3268.55 18992.6 3371.09 18973.1 3474.61C18955.5 3578.12 18933 3673.83 18905.7 3761.72C18886.1 3824.22 18854.9 3860.35 18811.9 3870.12C18770.9 3879.88 18729.9 3873.05 18688.9 3849.61C18647.9 3824.22 18614.7 3788.09 18589.3 3741.21C18563.9 3694.34 18558 3645.51 18571.7 3594.73C18587.3 3534.18 18601 3460.94 18612.7 3375C18624.4 3287.11 18633.2 3195.31 18639.1 3099.61C18646.9 3001.95 18652.7 2905.27 18656.6 2809.57C18660.6 2711.91 18663.5 2625 18665.4 2548.83C18591.2 2507.81 18529.7 2456.05 18480.9 2393.55C18432 2329.1 18407.6 2252.93 18407.6 2165.04C18407.6 2124.02 18415.4 2086.91 18431.1 2053.71C18448.6 2018.55 18471.1 1989.26 18498.4 1965.82C18525.8 1940.43 18558 1921.88 18595.1 1910.16C18632.2 1896.48 18670.3 1889.65 18709.4 1889.65C18744.5 1889.65 18780.7 1894.53 18817.8 1904.3C18856.8 1914.06 18893 1931.64 18926.2 1957.03C18961.3 1982.42 18992.6 2015.62 19019.9 2056.64C19047.3 2097.66 19069.7 2148.44 19087.3 2208.98C19136.1 2214.84 19177.2 2219.73 19210.4 2223.63C19245.5 2225.59 19274.8 2227.54 19298.2 2229.49C19321.7 2231.45 19341.2 2232.42 19356.8 2232.42C19372.5 2232.42 19388.1 2232.42 19403.7 2232.42H19717.2C19734.8 2232.42 19760.2 2243.16 19793.4 2264.65C19828.5 2286.13 19862.7 2314.45 19895.9 2349.61C19929.1 2382.81 19956.5 2418.95 19977.9 2458.01C20001.4 2497.07 20010.2 2534.18 20004.3 2569.34C20004.3 2581.05 19997.5 2609.38 19983.8 2654.3C19970.1 2699.22 19953.5 2755.86 19934 2824.22C19914.5 2892.58 19893 2971.68 19869.5 3061.52C19846.1 3149.41 19824.6 3242.19 19805.1 3339.84C19785.6 3437.5 19769 3539.06 19755.3 3644.53C19741.6 3748.05 19734.8 3849.61 19734.8 3949.22C19734.8 3990.23 19739.7 4030.27 19749.4 4069.34C19759.2 4108.4 19773.8 4143.55 19793.4 4174.8C19812.9 4204.1 19837.3 4227.54 19866.6 4245.12C19897.9 4262.7 19934 4271.48 19975 4271.48C20043.4 4271.48 20102 4250 20150.8 4207.03C20199.6 4164.06 20240.6 4110.35 20273.8 4045.9C20307 3981.45 20333.4 3912.11 20352.9 3837.89C20374.4 3761.72 20392 3690.43 20405.7 3624.02C20417.4 3561.52 20436.9 3516.6 20464.3 3489.26C20491.6 3459.96 20519.9 3445.31 20549.2 3445.31C20572.7 3445.31 20597.1 3453.12 20622.5 3468.75C20647.9 3482.42 20670.3 3500.98 20689.9 3524.41C20711.3 3547.85 20727.9 3574.22 20739.7 3603.52C20753.3 3632.81 20760.2 3662.11 20760.2 3691.41C20760.2 3701.17 20759.2 3708.98 20757.2 3714.84C20755.3 3720.7 20754.3 3726.56 20754.3 3732.42C20727 3832.03 20690.8 3936.52 20645.9 4045.9C20602.9 4155.27 20547.3 4255.86 20478.9 4347.66C20410.6 4439.45 20328.5 4515.62 20232.8 4576.17C20137.1 4636.72 20024.8 4666.99 19895.9 4666.99ZM22131.3 4271.48C22191.8 4271.48 22243.6 4250 22286.5 4207.03C22331.5 4164.06 22369.5 4110.35 22400.8 4045.9C22434 3981.45 22460.4 3912.11 22479.9 3837.89C22501.4 3761.72 22519 3690.43 22532.6 3624.02C22546.3 3561.52 22565.8 3516.6 22591.2 3489.26C22618.6 3459.96 22647.9 3445.31 22679.1 3445.31C22702.5 3445.31 22726 3453.12 22749.4 3468.75C22774.8 3482.42 22797.3 3500.98 22816.8 3524.41C22838.3 3547.85 22854.9 3574.22 22866.6 3603.52C22880.3 3632.81 22887.1 3662.11 22887.1 3691.41C22887.1 3695.31 22887.1 3700.2 22887.1 3706.05C22887.1 3711.91 22885.2 3720.7 22881.3 3732.42C22855.9 3832.03 22820.7 3936.52 22775.8 4045.9C22732.8 4155.27 22677.2 4255.86 22608.8 4347.66C22540.4 4439.45 22457.4 4515.62 22359.8 4576.17C22264.1 4636.72 22151.8 4666.99 22022.9 4666.99C21917.4 4666.99 21825.6 4644.53 21747.5 4599.61C21669.3 4554.69 21607.8 4495.12 21562.9 4420.9C21502.4 4489.26 21429.1 4546.88 21343.2 4593.75C21259.2 4642.58 21160.6 4666.99 21047.3 4666.99C20930.1 4666.99 20826.6 4643.55 20736.7 4596.68C20648.8 4549.8 20574.6 4486.33 20514.1 4406.25C20453.5 4324.22 20407.6 4228.52 20376.4 4119.14C20347.1 4007.81 20332.4 3888.67 20332.4 3761.72C20332.4 3511.72 20372.5 3287.11 20452.5 3087.89C20532.6 2888.67 20639.1 2719.73 20771.9 2581.05C20904.7 2440.43 21056.1 2333.01 21226 2258.79C21397.9 2184.57 21575.6 2147.46 21759.2 2147.46C21841.2 2147.46 21907.6 2169.92 21958.4 2214.84C22009.2 2259.77 22034.6 2321.29 22034.6 2399.41C22034.6 2450.2 22028.7 2486.33 22017 2507.81C22007.2 2527.34 21987.7 2537.11 21958.4 2537.11C21931.1 2537.11 21902.7 2535.16 21873.4 2531.25C21844.1 2527.34 21813.9 2525.39 21782.6 2525.39C21669.3 2525.39 21554.1 2550.78 21436.9 2601.56C21319.7 2650.39 21213.3 2726.56 21117.6 2830.08C21023.8 2931.64 20946.7 3061.52 20886.1 3219.73C20825.6 3375.98 20795.3 3562.5 20795.3 3779.3C20795.3 3937.5 20825.6 4059.57 20886.1 4145.51C20946.7 4229.49 21029.7 4271.48 21135.2 4271.48C21217.2 4271.48 21285.6 4241.21 21340.2 4180.66C21394.9 4118.16 21438.9 4044.92 21472.1 3960.94V3035.16C21472.1 3005.86 21470.1 2981.45 21466.2 2961.91C21464.3 2942.38 21461.3 2925.78 21457.4 2912.11C21455.5 2898.44 21453.5 2886.72 21451.6 2876.95C21449.6 2865.23 21448.6 2854.49 21448.6 2844.73C21448.6 2813.48 21463.3 2789.06 21492.6 2771.48C21523.8 2751.95 21560.9 2742.19 21603.9 2742.19C21703.5 2742.19 21782.6 2768.55 21841.2 2821.29C21899.8 2872.07 21929.1 2933.59 21929.1 3005.86V3996.09C21929.1 4029.3 21933 4062.5 21940.8 4095.7C21948.6 4126.95 21960.4 4156.25 21976 4183.59C21991.6 4208.98 22012.1 4230.47 22037.5 4248.05C22064.9 4263.67 22096.1 4271.48 22131.3 4271.48ZM26142 3732.42C26114.7 3832.03 26078.5 3936.52 26033.6 4045.9C25990.6 4155.27 25935 4255.86 25866.6 4347.66C25798.2 4439.45 25716.2 4515.62 25620.5 4576.17C25524.8 4636.72 25412.5 4666.99 25283.6 4666.99C25203.5 4666.99 25132.2 4651.37 25069.7 4620.12C25009.2 4590.82 24956.5 4550.78 24911.5 4500C24868.6 4449.22 24835.4 4389.65 24811.9 4321.29C24790.4 4252.93 24779.7 4180.66 24779.7 4104.49V2885.74C24779.7 2838.87 24778.7 2794.92 24776.8 2753.91C24774.8 2712.89 24769.9 2676.76 24762.1 2645.51C24754.3 2614.26 24742.6 2589.84 24727 2572.27C24713.3 2552.73 24693.8 2542.97 24668.4 2542.97C24627.4 2542.97 24577.5 2572.27 24519 2630.86C24460.4 2689.45 24403.7 2765.62 24349 2859.38C24294.3 2953.12 24245.5 3059.57 24202.5 3178.71C24159.6 3295.9 24134.2 3414.06 24126.4 3533.2V4409.18C24126.4 4438.48 24125.4 4468.75 24123.4 4500C24123.4 4529.3 24117.6 4555.66 24105.9 4579.1C24096.1 4604.49 24079.5 4625 24056.1 4640.62C24034.6 4658.2 24002.4 4666.99 23959.4 4666.99C23930.1 4666.99 23897.9 4663.09 23862.7 4655.27C23829.5 4649.41 23798.2 4636.72 23769 4617.19C23741.6 4599.61 23718.2 4573.24 23698.6 4538.09C23681.1 4504.88 23672.3 4459.96 23672.3 4403.32V2885.74C23672.3 2838.87 23670.3 2794.92 23666.4 2753.91C23664.5 2712.89 23659.6 2676.76 23651.8 2645.51C23644 2614.26 23632.2 2589.84 23616.6 2572.27C23602.9 2552.73 23583.4 2542.97 23558 2542.97C23517 2542.97 23467.2 2572.27 23408.6 2630.86C23352 2689.45 23295.3 2765.62 23238.7 2859.38C23184 2953.12 23135.2 3059.57 23092.2 3178.71C23051.2 3295.9 23025.8 3414.06 23016 3533.2V4409.18C23016 4438.48 23015 4468.75 23013.1 4500C23013.1 4529.3 23007.2 4555.66 22995.5 4579.1C22985.8 4604.49 22969.1 4625 22945.7 4640.62C22924.2 4658.2 22892 4666.99 22849 4666.99C22819.7 4666.99 22787.5 4663.09 22752.4 4655.27C22719.1 4649.41 22687.9 4636.72 22658.6 4617.19C22631.3 4599.61 22607.8 4573.24 22588.3 4538.09C22570.7 4504.88 22561.9 4459.96 22561.9 4403.32V2501.95C22561.9 2445.31 22557 2404.3 22547.3 2378.91C22539.5 2353.52 22535.6 2330.08 22535.6 2308.59C22535.6 2279.3 22551.2 2255.86 22582.4 2238.28C22613.7 2218.75 22650.8 2208.98 22693.8 2208.98C22793.4 2208.98 22871.5 2235.35 22928.1 2288.09C22986.7 2338.87 23016 2400.39 23016 2472.66V2724.61C23055.1 2642.58 23097.1 2566.41 23142 2496.09C23188.9 2425.78 23238.7 2365.23 23291.4 2314.45C23344.1 2261.72 23399.8 2220.7 23458.4 2191.41C23519 2162.11 23583.4 2147.46 23651.8 2147.46C23741.6 2147.46 23815.8 2164.06 23874.4 2197.27C23935 2230.47 23982.8 2274.41 24018 2329.1C24055.1 2383.79 24081.5 2445.31 24097.1 2513.67C24112.7 2580.08 24122.5 2646.48 24126.4 2712.89C24163.5 2632.81 24204.5 2558.59 24249.4 2490.23C24294.3 2421.88 24343.2 2362.3 24395.9 2311.52C24448.6 2260.74 24504.3 2220.7 24562.9 2191.41C24623.4 2162.11 24687.9 2147.46 24756.3 2147.46C24853.9 2147.46 24934 2166.02 24996.5 2203.12C25059 2240.23 25107.8 2288.09 25143 2346.68C25178.1 2405.27 25202.5 2470.7 25216.2 2542.97C25229.9 2615.23 25236.7 2685.55 25236.7 2753.91V3996.09C25236.7 4009.77 25237.7 4032.23 25239.7 4063.48C25241.6 4092.77 25247.5 4123.05 25257.2 4154.3C25267 4185.55 25281.6 4212.89 25301.2 4236.33C25322.7 4259.77 25352.9 4271.48 25392 4271.48C25452.5 4271.48 25504.3 4250 25547.3 4207.03C25592.2 4164.06 25630.3 4110.35 25661.5 4045.9C25694.7 3981.45 25722.1 3912.11 25743.6 3837.89C25765 3761.72 25782.6 3690.43 25796.3 3624.02C25808 3561.52 25826.6 3516.6 25852 3489.26C25879.3 3459.96 25908.6 3445.31 25939.9 3445.31C25963.3 3445.31 25986.7 3453.12 26010.2 3468.75C26035.6 3482.42 26058 3500.98 26077.5 3524.41C26099 3547.85 26115.6 3574.22 26127.4 3603.52C26141 3632.81 26147.9 3662.11 26147.9 3691.41C26147.9 3695.31 26147.9 3700.2 26147.9 3706.05C26147.9 3711.91 26145.9 3720.7 26142 3732.42Z" fill="black"/>
</svg>
